<?xml version="1.0" encoding="utf-8"?>
<!-- Generator: Adobe Illustrator 16.0.0, SVG Export Plug-In . SVG Version: 6.00 Build 0)  -->
<!DOCTYPE svg PUBLIC "-//W3C//DTD SVG 1.1//EN" "http://www.w3.org/Graphics/SVG/1.1/DTD/svg11.dtd" [
	<!ENTITY ns_flows "http://ns.adobe.com/Flows/1.0/">
	<!ENTITY ns_extend "http://ns.adobe.com/Extensibility/1.0/">
	<!ENTITY ns_ai "http://ns.adobe.com/AdobeIllustrator/10.0/">
	<!ENTITY ns_graphs "http://ns.adobe.com/Graphs/1.0/">
]>
<svg version="1.1" id="Layer_1" xmlns:x="&ns_extend;" xmlns:i="&ns_ai;" xmlns:graph="&ns_graphs;"
	 xmlns="http://www.w3.org/2000/svg" xmlns:xlink="http://www.w3.org/1999/xlink" xmlns:a="http://ns.adobe.com/AdobeSVGViewerExtensions/3.0/"
	 x="0px" y="0px" width="864px" height="864px" viewBox="0 0 864 864" enable-background="new 0 0 864 864" xml:space="preserve">
<g>
	<path fill-rule="evenodd" clip-rule="evenodd" fill="#00B7A9" d="M833.521,199.515c-7.138-14.125-20.338-19.458-34.553-21.685
		c-11.88-1.864-14.249,1.342-13.174,12.859c0.044,0.48-0.005,0.971,0.03,1.454c0.528,7.037-2.566,15.911-7.546,24.034
		c0.337-2.068,0.523-4.178,0.523-6.326c1.02-2.541,2.135-4.8,1.956-6.949c-0.687-8.309-1.232-16.828-3.556-24.76
		c-4.253-14.525-9.373-16.958-23.867-13.94c0,2.392,0.186,4.781,0.214,7.127c-1.591-0.825-3.238-1.572-4.934-2.249
		c-5.822-15.392-12.273-29.837-30.432-35.084c1.695-1.517,2.794-2.5,3.893-3.483c-0.188-0.392-0.376-0.786-0.564-1.178
		c-2.385,0.75-5.069,1.029-7.105,2.328c-11.279,7.197-19.206,17.221-24.691,29.422c-5.284,11.756-10.692,23.497-16.91,34.766
		c-1.556,2.816-6.731,5.729-9.726,5.263c-9.133-1.42-18.108-4.158-26.962-6.959c-11.286-3.574-16.517-2.148-22.199,8.164
		c-2.49,4.517-4.058,9.665-5.33,14.705c-2.172,8.607-0.627,10.553,8.005,10.465c19.403-0.198,33.909,8.396,45.39,25.565
		c-3.137-2.302-5.114-3.752-7.877-5.781c-10.722,25.799-30.281,44.642-46.792,65.858c0.569-2.455,1.14-4.91,1.704-7.342
		c-24.062-10.995-47.724-21.809-71.371-32.616c3.342-1.13,7.754-2.623,13.728-4.644c-12.888-4.242-23.509-1.931-34.134,3.156
		c0.431-2.694,0.753-4.714,1.043-6.529c-6.57,7.733-12.218,16.414-19.817,22.755c-7.727,6.451-17.377,10.596-26.888,16.161
		c0.734,0.949,1.479,1.88,2.229,2.801h-3.606c-2.061-3.207-3.96-6.587-5.678-10.151c-3.772-7.824-3.552-8.287-12.946-5.868
		c2.41,3.015,4.756,5.949,6.114,7.649c-3.59-1.908-8.036-6.303-12.226-6.072c-2.558,0.142-5.49-0.108-7.62,2.46l-13.389-16.114
		c1.599-1.952,3.225-3.937,4.979-6.079c-8.426-4.552-16.618,0.628-24.902-0.162c-8.742-0.834-19.634,4.401-25.79,13.521
		c-1.472,2.18-2.063,4.957-3.06,7.459c0.696,0.409,1.394,0.82,2.09,1.229c0.389-0.265,0.778-0.53,1.167-0.794l-3.571,22.409
		c-0.709,0.179-1.419,0.356-2.127,0.536c-1.269,0.928-2.512,2.166-3.598,3.596h-7.053c-0.705-1.261-1.988-2.269-4.097-2.948
		c-3.849-1.239-7.309-3.645-11.022-5.36c-5.432-2.508-7.479-6.141-5.435-12.189c0.478-1.414-1.178-4.775-2.654-5.429
		c-15.543-6.88-31.083-13.837-46.997-19.77c-5.742-2.141-12.489-1.585-18.778-2.26c-0.065,0.621-0.131,1.243-0.197,1.862
		c3.583,1.275,7.165,2.55,11.058,3.935c-8.084,3.179-15.166,5.963-22.248,8.747c0.191,0.58,0.382,1.16,0.573,1.739
		c2.875-0.271,5.751-0.541,10.604-0.997c-19.04,11.995-36.06,22.717-53.661,33.805c2.36,1.508,4.457,2.847,8.26,5.277
		c-23.07-5.436-40.316-17.775-57.982-29.076c-1.659,1.268-3.152,2.411-5.459,4.175c1.844-5.176,3.13-9.487,4.887-13.598
		c6.535-15.288,12.58-30.919,29.2-38.781c1.626-0.769,2.955-4.584,2.614-6.694c-1.921-11.906-17.247-20.618-27.803-14.812
		c-6.402,3.52-11.771,9.693-16.315,15.658c-9.493,12.459-7.957,13.511-24.356,6.93c-1.79-0.718-3.513-1.649-5.169-2.642
		c-12.159-7.294-24.325-14.575-36.425-21.965c-15.262-9.322-22.934-7.845-33.45,6.593c-0.568,0.779-1.383,1.379-1.937,2.167
		c-7.771,11.031-11.135,22.299-9.293,31.006c7.184-6.101,12.216-6.738,18.36-1.487c2.657,2.27,5.416,5.403,6.184,8.611
		c0.678,2.833-1.346,6.313-2.161,9.449c1.652,1.9-1.432,4.206-4.685,6.38c1.186,2.145,2.296,3.938,3.232,5.719h-4.284v0.026
		c-0.201-0.358-0.388-0.711-0.603-1.076c-3.94,5.056-7.077,3.731-9.555-1.308c-1.795-3.648-3.521-7.331-5.237-11.017
		c-2.755-5.912-5.478-11.84-8.17-17.671c-9.15,2.709-14.697,7.666-15.015,16.95c-0.314,9.151-1.343,18.407-0.352,27.43
		c0.713,6.489,4.228,12.672,7.067,20.592c12.624-14.489,17.849-15.841,31.644-9.99c0.079-0.074,0.146-0.154,0.222-0.229v0.411h5.239
		c-0.391,0.708-0.812,1.41-1.296,2.102c-7.698,11-6.813,18.75,4.107,26.392c2.943,2.058,6.049,3.956,8.688,6.36
		c5.811,5.291,12.326,5.389,18.843,2.37c5.127-2.375,9.773-5.788,14.633-8.741c-2.51,4.303-5.763,8.219-9.776,11.061
		c-3.552,2.516-5.463,4.227-2.326,8.494c3.395,4.617,6.036,9.779,9.181,14.589c18.265,27.931,39.272,52.977,71.477,67.119
		c-4.274,0.962-7.978,1.797-13.003,2.93c10.376,7.797,20.46,4.832,30.802,4.342c-5.985,3.037-11.476,5.825-16.966,8.612
		c0.324,0.708,0.646,1.416,0.969,2.126c2.102-0.294,4.239-0.431,6.299-0.905c12.208-2.805,21.401-10.684,30.289-18.737
		c20.084-18.203,42.034-33.558,66.638-44.996c3.807-1.77,7.923-2.877,11.574-4.176c-2.236,3.113-5.278,5.599-5.934,8.605
		c-1.626,7.453-1.788,15.216-3.208,22.727c-4.265,22.572-8.833,45.085-13.327,67.613c-0.844,4.235-1.89,8.43-2.843,12.643
		c0.73,0.186,1.462,0.37,2.192,0.554c1.669-4.849,3.337-9.698,5.005-14.549c0.544,5.281-0.689,10.325-0.367,15.268
		c1.043,16.029,2.387,32.05,4.126,48.017c1.74,15.969,4.45,31.832,6.051,47.812c0.569,5.673,1.216,11.451,1.429,17.184
		c-9.631,3.037-21.936,6.794-27.697,8.762c-14.604,4.988-27.906,2.986-39.686-7.309c-6.47-5.653-12.933-11.316-20.696-18.107
		c0.244,20.938,8.388,37.647,19.046,52.89c10.08,14.416,19.218,20.79,55.268,25.241c-2.121,5.367-4.422,10.702-6.887,16.015
		c2.64-2.144,5.28-4.289,8.107-6.584c0.207,6.724-3.192,13.634,2.716,20.237c0.768-4.792,1.35-8.417,2.109-13.151
		c5.037,9.638,9.405,17.995,13.954,26.697c-10.291,0-20.357,0-30.044,0c0.453,0.562,1.422,1.769,2.654,3.297
		c-6.727,1.461-12.811,3.053-13.797,9.581c4.304,1.421,7.856,1.711,10.107,3.574c2.455,2.032,3.703,5.52,5.2,7.927
		c2.581-5.626,5.295-7.874,6.236-3.885c9.75-2.182,13.904,4.857,17.553,11.607c3.614-6.929,7.607-7.593,7.568-5.801
		c6.36-3.502,10.853-2.08,13.098,4.171c1.588,4.418,3.57,9.219,3.185,13.658c-0.322,3.715-3.819,7.154-6.437,11.614
		c3.395,0,7.507,0.856,11.111-0.136c25.92-7.135,51.722-14.693,77.598-21.988c4.209-1.188,5.399-3.619,4.304-7.539
		c-1.224-4.378-2.604-8.71-3.785-13.099c-3.708-13.77-9.742-27.332-3.352-41.967c1.284-2.942,1.775-6.229,2.582-9.176
		c-6.189-4.877,69.187-12.673,67.65-11.559c6.037,12.053,13.526,23.45,17.45,35.963c3.149,10.044,2.712,21.461,2.483,32.238
		c-0.17,8.015,3.018,12.05,10.046,14.487c19.985,6.935,39.824,14.304,59.911,20.924c6.56,2.161,13.703,2.54,20.265,3.68
		c-2.392-5.353-5.828-9.54-5.691-13.607c0.177-5.261,2.095-11.295,5.307-15.396c3.498-4.467,7.584,0.686,11.258,2.357
		c1.042,0.474,2.113,0.88,3.256,1.352c2.518-2.715,4.929,2.952,4.929,2.952c0.46,4.92,0.637,8.981,5.97,10.535
		c-0.926-6.517-3.018-12.481-2.306-18.087c1.367-10.761,6.062-14.858,16.014-9.644c0.523,0.273,1.229,0.2,1.928,0.299
		c-0.26-2.938,3.261-4.662,3.683-3.044c4.337-3.269,8.654-6.523,13.255-9.991c-3.449-10.312-4.401-10.801-15.839-11.088
		c-9.47-0.236-18.926-1.071-27.117-1.562c1.393-11.149,2.686-21.496,3.836-30.71c1.21,2.348,3.1,6.02,4.989,9.692
		c0.926-0.384,1.853-0.766,2.778-1.148c-3.104-8.465-6.209-16.929-9.11-24.843c1.188,0.706,3.284,2.27,5.625,3.251
		c2.075,0.869,4.422,1.092,8.755,2.082c-23.519-22.024-38.293-47.162-50.277-74.402c-3.786-0.548,0.74-6.514,4.148-35.867
		c3.357,7.309-1.174,13.86,6.073,19.319c0-9.142-0.023-16.752,0.014-24.362c0.012-2.389-0.325-6.675,0.366-6.858
		c5.35-1.439,2.285-4.484,1.374-6.573c-5.189-11.893-10.975-23.536-15.875-35.542c-10.141-24.842-19.885-49.847-29.65-74.84
		c-0.488-1.249,0.169-3.078,0.616-4.538c3.646-11.894,7.476-23.734,11.034-35.654c2.917-9.77,5.536-19.628,8.287-29.447
		c1.455,1.909,1.745,3.57,1.131,4.764c-3.23,6.285,0.051,8.486,5.56,10.087c6.227,1.811,12.697,3.436,18.343,6.478
		c21.813,11.75,43.341,24.033,64.975,36.117c-0.125,0.63-0.252,1.258-0.377,1.888c-5.676,1.242-11.352,2.483-18.701,4.091
		c10.998,5.748,21.116,2.71,33.031,2.41c-3.962,2.947-6.59,4.903-9.22,6.859c17.967-0.979,27.278-14.443,39.552-24.432
		c-0.506,3.572-1.014,7.146-1.57,11.072c8.987-3.83,21.235-22.734,25.575-35.527c13.524-39.877,25.716-80.207,38.392-120.259
		l17.846-11.713c0.139-0.461,5.205-15.449,5.428-15.88c6.774-13.037,13.151-26.405,27.204-32.565
		c-0.262-3.795-0.495-7.157-0.729-10.519c2.992,8.77,7.668,15.01,15.999,15.658c3.731-4.404,6.198-9.152,10.105-11.42
		c4.081-2.37,9.55-2.352,15.062-3.514C834.474,203.056,834.33,201.117,833.521,199.515z"/>
	<path fill-rule="evenodd" clip-rule="evenodd" fill="#00B7A9" d="M20.996,322.273c-10.749,11.495-13.634,36.349-5.179,43.188
		c3.13-10.717,20.459-9.848,27.752,2.355c2.922-5.949,5.452-10.494,7.317-15.296c0.503-1.296-0.5-3.927-1.675-5.008
		C39.923,338.97,30.424,330.654,20.996,322.273z"/>
</g>
<g>
	<path fill-rule="evenodd" clip-rule="evenodd" fill="#00766D" d="M391.93,284.091c0.257,1.522,0.514,3.044,0.737,4.366
		c8.261-2.73,16.77-5.544,26.153-8.644c1.461,7.015,2.748,13.188,3.836,18.411c-14.599,5.051-28.043,9.871-41.639,14.212
		c-1.896,0.605-6.183-0.681-6.527-1.894c-0.946-3.341-6.786-6.651-0.413-10.847c5.293-3.484,9.776-8.202,14.618-12.375
		C389.772,286.245,390.852,285.168,391.93,284.091z"/>
	<path fill-rule="evenodd" clip-rule="evenodd" fill="#00766D" d="M468.309,287.522c-6.257,0-12.931-1.126-18.986,0.326
		c-5.745,1.377-10.844,5.451-17.516,9.032c1.414,0.304,0.759,0.358,0.595,0.1c-2.825-4.445-8.958-10.434-7.754-13.129
		c4.017-8.99,10.883-16.499,22.623-16.25c-0.532-1.299-0.937-2.289-1.362-3.325C456.926,264.211,469.539,276.733,468.309,287.522z"
		/>
	<path fill-rule="evenodd" clip-rule="evenodd" fill="#00766D" d="M432.948,335.862c6.222-7.854,9.906-12.195,16.9-15.369
		c9.058,2.164,12.238,6.354,16.219,10.399c0.865,8.12-6.165,9.702-10.092,11.813c-3.193,4.503-6.569,4.817-10.058,2.1
		c-1.877,6.722-7.115,1.798-10.023,3.868c-0.41-0.513-0.822-1.025-1.233-1.537c0.999-1.828-0.238-1.814-0.541-2.435
		c-1.161,0.318-1.413-0.152-5.29,2.471c-1.801-1.789-2.888-3.112,0.393-6.191C429.228,340.978,432.948,335.862,432.948,335.862z"/>
</g>
<g>
	<path fill-rule="evenodd" clip-rule="evenodd" fill="#8A8C8E" d="M367.461,318.452c-6.985-5.885-18.969-5.066-21.759-15.537
		c-1.745-6.548,0.032-13.774,4.327-19.881c-4.121-3.069,0.089-7.124,1.23-10.555c2.773-8.337,16.126-9.708,28.756-5.115
		c-2.811,1.477-5.505,2.397-7.553,4.096c-2.482,2.058-4.328,4.865-6.624,7.174c-1.449,1.457-3.221,2.594-4.024,3.228
		c1.136,2.126,2.599,4.867,4.783,8.956c1.735,0.863,5.125,2.547,9.905,4.923C363.512,299.748,375.944,311.687,367.461,318.452z"/>
	<path fill-rule="evenodd" clip-rule="evenodd" fill="#8A8C8E" d="M264.711,776.545c-2.109-10.365,9.401-26.91,19.044-26.509
		c6.355,0.264,8.428,6.649,8.875,11.451c0.299,3.21-2.824,8.698-5.733,9.854C279.914,774.115,272.156,774.937,264.711,776.545z"/>
	<path fill-rule="evenodd" clip-rule="evenodd" fill="#8A8C8E" d="M629.857,773.146c-6.983-0.97-14.003-1.754-20.923-3.068
		c-1.495-0.285-3.653-2.409-3.743-3.799c-0.339-5.183-0.538-10.521,0.363-15.594c0.736-4.138,3.826-5.39,8.183-3.354
		C622.402,751.376,630.514,763.99,629.857,773.146z"/>
	<path fill-rule="evenodd" clip-rule="evenodd" fill="#8A8C8E" d="M317.027,777.003c-5.504,1.464-9.644,2.497-13.74,3.678
		c-3.896,1.121-7.747,2.396-12.121,3.762c-1.127-12,4.369-20.614,12.881-27.554c4.159-3.391,9.297-1.71,10.79,3.719
		C316.306,765.949,316.374,771.678,317.027,777.003z"/>
	<path fill-rule="evenodd" clip-rule="evenodd" fill="#8A8C8E" d="M601.088,785.864c-6.246-1.586-12.765-2.532-18.617-5.037
		c-2.747-1.176-5.477-5.145-5.977-8.213c-0.859-5.281-1.404-11.417,4.825-14.634c1.032-0.533,2.772-0.147,4.028,0.277
		C591.7,760.406,603.445,776.545,601.088,785.864z"/>
	<path fill-rule="evenodd" clip-rule="evenodd" fill="#8A8C8E" d="M58.955,349.324c-9.492-3.521-15.923-10.825-20.259-19.945
		c-0.897-1.887,0.11-5.67,1.583-7.497c3.992-4.95,10.13-5.299,15.213-3.075c2.152,0.941,3.057,6.254,3.315,9.673
		C59.31,335.137,58.955,341.858,58.955,349.324z"/>
	<path fill-rule="evenodd" clip-rule="evenodd" fill="#8A8C8E" d="M652.327,764.942c-7.652-1.71-14.861-2.908-21.787-5.032
		c-3.918-1.2-3.987-12.953-0.568-18.608c3.487-5.769,7.188-1.727,10.1,0.23C647.876,746.778,651.587,754.525,652.327,764.942z"/>
	<path fill-rule="evenodd" clip-rule="evenodd" fill="#8A8C8E" d="M241.95,768.777c-0.778-7.049,2.578-11.854,6.63-16.157
		c2.099-2.23,4.853-3.905,7.475-5.573c7.52-4.78,12.082-2.289,12.461,6.692c0.247,5.808-4.868,11.582-10.763,12.408
		C252.831,766.835,247.943,767.769,241.95,768.777z"/>
	<path fill-rule="evenodd" clip-rule="evenodd" fill="#8A8C8E" d="M741.539,203.95c-4.795-5.318-9.718-10.53-14.277-16.044
		c-0.883-1.071-1.122-4.138-0.335-4.877c3.729-3.51,7.498-7.499,12.055-9.465c5.043-2.181,7.875,2.209,7.757,6.609
		c-0.209,7.892-1.486,15.758-2.318,23.633C743.461,203.853,742.499,203.901,741.539,203.95z"/>
	<path fill-rule="evenodd" clip-rule="evenodd" fill="#8A8C8E" d="M756.85,235.887c-1.526-6.593-3.345-12.461-4.068-18.459
		c-0.33-2.727,0.754-7.494,2.505-8.232c4.323-1.819,9.405-2.254,14.169-2.192c0.802,0.01,2.379,5.359,2.147,8.121
		C770.789,224.812,763.876,230.437,756.85,235.887z"/>
	<path fill-rule="evenodd" clip-rule="evenodd" fill="#8A8C8E" d="M57.934,293.391c-8.764-6.917-8.782-16.087-7.873-25.268
		c0.167-1.679,3.52-4.648,4.681-4.337c4.208,1.132,8.913,2.606,11.829,5.541c1.786,1.8,1.789,6.992,0.577,9.789
		C65.008,284.047,61.328,288.31,57.934,293.391z"/>
	<path fill-rule="evenodd" clip-rule="evenodd" fill="#8A8C8E" d="M34.685,389.955c-9.141-5.683-13.188-13.348-15.207-22.052
		c-1.61-6.939,3.341-7.099,8.35-6.972c9.635,0.245,11.641,2.786,9.039,11.581c-0.805,2.716-1.298,5.55-1.669,8.364
		C34.862,383.43,34.888,386.033,34.685,389.955z"/>
	<path fill-rule="evenodd" clip-rule="evenodd" fill="#8A8C8E" d="M824.742,235.614c-3.046-5.865-6.392-11.606-8.932-17.685
		c-0.641-1.537,0.684-5.243,2.152-6.051c3.813-2.102,8.161-3.385,12.444-4.299c0.5-0.106,3.104,4.371,2.723,6.332
		c-1.459,7.497-3.743,14.833-5.717,22.231C826.523,235.965,825.632,235.79,824.742,235.614z"/>
	<path fill-rule="evenodd" clip-rule="evenodd" fill="#8A8C8E" d="M606.6,205.014c-1.364,5.111-2.65,9.919-4.599,17.215
		c-5.609-7.957-10.155-14.401-14.7-20.846c0.571-0.681,1.143-1.361,1.713-2.042C594.765,201.196,600.515,203.051,606.6,205.014z"/>
	<path fill-rule="evenodd" clip-rule="evenodd" fill="#8A8C8E" d="M201.816,234.73c-1.353-1.669-2.609-3.481-4.135-5.027
		c-1.495-1.514-3.263-2.758-5.154-4.32c4.483-4.121,8.942-8.22,13.481-12.393C209.672,221.416,208.41,228.603,201.816,234.73z"/>
	<path fill-rule="evenodd" clip-rule="evenodd" fill="#8A8C8E" d="M485.526,269.3c-4.594-6.811-9.265-13.578-14.262-20.091
		c-0.68-0.886-3.314-0.273-5.043-0.355c-4.367-2.019-7.601-0.713-10.651,1.129c-4.349,2.022-7.115,2.417-4.99,5.733
		c0.137,0.212,3.903-0.455,7.214-1.033c1.656-0.237,3.313-0.475,4.971-0.712c1.663,5.025,3.327,10.05,5.318,16.069
		c3.182,0,7.72,0,12.257,0c-0.003,0.444-0.007,0.887-0.01,1.332c-4.667,0-9.334,0-13.903,0c1.742,4.068,4.491,7.574,4.352,10.959
		c-0.149,3.656-3,7.203-4.575,10.59c5.579-0.078,20.12-13.756,20.023-19.491C486.203,272.035,486.241,270.359,485.526,269.3z"/>
</g>
<g>
	<path fill-rule="evenodd" clip-rule="evenodd" fill="#6600FF" d="M277.3,622.765c-8.201,2.959-14.713,5.31-21.519,7.766
		C255.325,620.743,260.188,614.507,277.3,622.765z"/>
	<path fill-rule="evenodd" clip-rule="evenodd" fill="#6600FF" d="M216.012,612.606c11.638-2.97,15.25,0.238,13.526,11.639
		C225.072,620.403,221.008,616.904,216.012,612.606z"/>
</g>
<g>
	<path fill-rule="evenodd" clip-rule="evenodd" fill="#FFFFFF" d="M418.018,304.683c8.712,10.156,8.617,17.165-0.312,22.713
		c-8.48,5.27-16.948,1.966-19.398-7.766c-0.637-2.531-0.419-5.279-0.594-7.928C402.839,304.612,410.701,305.438,418.018,304.683z"/>
	<path fill-rule="evenodd" clip-rule="evenodd" fill="#FFFFFF" d="M488.259,355.251c0.373,6.244,2.858,11.156,3.826,7.759
		c0.62-0.198,1.241-0.395,1.862-0.591c2.283,3.732,5.072,7.256,6.722,11.251c2.018,4.886,0.53,7.876-5.224,10.087
		c-17.263,6.634-34.153,14.238-51.194,21.452c-25.448,10.772-37.922,2.969-53.856-21.995c-3.459-5.421-5.203-11.939-7.737-17.952
		c0.617-0.315,1.763,0.411-0.097-3.975c-2.076-4.897-1.55-10.897-2.157-16.417c0.588-0.055,1.176-0.112,1.765-0.169
		c4.37,6.081,8.646,12.232,13.129,18.227c10.264,13.725,24.213,16.232,39.907,12.549c9.037-2.121,18.212-4.071,26.851-7.351
		C470.698,364.845,478.75,360.006,488.259,355.251z"/>
	<path fill-rule="evenodd" clip-rule="evenodd" fill="#FFFFFF" d="M454.102,296.198c9.913,7.325,7.48,15.893-1.449,21.441
		c-8.479,5.27-17.346,6.486-19.796-3.246c-0.638-2.532-1.143-4.416,0.388-11.173C437.161,298.061,443.152,285.721,454.102,296.198z"
		/>
</g>
<g>
	<path display="none" fill-rule="evenodd" clip-rule="evenodd" fill="#FFFFFF" d="M448.364,292.921
		c20.861,8.584,7.855,20.002,1.185,26.426c-8.48,5.27-14.638,2.88-17.088-6.851c-0.637-2.531,0.696-8.117,2.294-11.151
		C441.324,290.618,445.705,292.055,448.364,292.921z"/>
	<g>
		<path d="M587.301,201.383c0.078,0.109,0.155,0.22,0.233,0.33c-0.018-0.183-0.038-0.366-0.05-0.549
			C587.423,201.237,587.362,201.31,587.301,201.383z"/>
		<path d="M837.82,197.087c-4.32-10.545-14.057-14.841-23.191-19.648c-10.509-5.531-21.331-7.292-32.869,0.547
			c-4.508-17.874-15.862-22.967-30.791-19.294c-7.764-9.598-14.928-18.456-22.446-27.753c3.046-2.727,0.095-4.717-3.937-4.593
			c-4.42,0.135-9.202,0.947-13.115,2.893c-14.168,7.045-21.604,19.853-27.506,33.823c-3.65,8.639-7.389,17.246-11.359,25.739
			c-4.138,8.852-8.053,10.623-17.403,7.841c-5.982-1.78-11.855-3.974-17.687-6.218c-8.233-3.168-16.698-4.037-22.615,3.279
			c-6.135,7.585-12.62,7.527-20.45,4.383c-2.154-0.866-4.457-1.36-6.753-2.042c-0.268,1.692-0.327,3.405-0.213,5.12
			c0.51-0.607,1.02-1.215,1.529-1.823c5.751,1.855,11.501,3.71,17.586,5.673c-1.364,5.111-2.65,9.919-4.599,17.215
			c-5.514-7.821-9.999-14.181-14.467-20.516c1.385,15.521,17.419,31.006,33.361,31.865c7.423,0.399,14.842,2.923,22.008,5.261
			c4.553,1.487,6.039,4.96,3.036,9.698c-11.019,17.388-21.857,34.889-33.171,52.998c-21.271-9.737-41.237-18.878-61.878-28.328
			c2.793-1.386,4.596-2.282,7.661-3.804c-11.671-8.856-23.587-7.866-35.26-5.135c-1.041-3.447-1.818-6.019-2.933-9.703
			c-14.842,18.376-26.9,37.891-45.727,42.877c2.523-3.194,7.41-9.649,12.599-15.852c3.841-4.591,6.135-9.181,1.976-14.657
			c-5.376-7.079-10.801-14.123-16.379-21.041c-0.975-1.209-2.729-2.228-4.263-2.477c-6.533-1.059-21.17,6.768-24.751,12.973
			c15.811,0.831,20.131,3.561,18.575,12.49c-3.4-2.109-6.381-4.806-9.862-5.892c-3.926-1.224-11.189-2.61-12.014-1.135
			c-4.902,8.766-13.37,4.86-20.01,6.685c-2.351,0.646-5.421-1.326-9.1-2.37c-12.332,7.51-32.39,3.914-40.125,24.871
			c-1.883-3.885-4.159-6.303-3.75-8.114c2.216-9.813,10.964-12.112,20.596-15.115c-11.049-6.394-21.418-6.179-31.892-4.824
			c-5.128,0.664-7.917,3.788-8.91,9.008c-1.14,5.989-2.889,11.863-4.594,18.67c-7.891-3.935-14.832-7.575-21.924-10.891
			c-14.284-6.68-28.94-12.284-45.097-10.859c-4.276,0.377-8.395,2.548-12.585,3.895c0.227,0.658,0.454,1.316,0.68,1.975
			c2.025,1.058,4.051,2.115,6.574,3.433c-5.488,3.174-10.253,6.148-15.218,8.737c-4.197,2.188-4.646,4.31,0.062,7.177
			c-12.73,7.246-24.93,14.339-37.313,21.097c-2.254,1.229-6.101,2.422-7.783,1.363c-12.684-7.992-25.009-16.549-37.111-24.703
			c1.727-4.221,2.604-6.687,3.72-9.039c4.463-9.406,8.826-19.138,18.25-24.592c6.99-4.045,12.241-8.28,10.809-17.368
			c-0.251-1.595,1.245-3.477,1.968-5.213c3.58-8.6,6.062-17.163-0.892-26.313c-3.833,2.99-7.201,6.041-10.986,8.434
			c-3.065,1.938-6.85,4.719-9.938,4.306c-15.391-2.059-24.661,6.178-32.014,17.79c-7.805,12.327-8.872,12.793-21.747,5.805
			c-1.908-1.035-3.731-2.228-5.598-3.34c-12.373-7.375-24.468-15.277-37.196-21.977c-13.289-6.994-24.666-4.543-33.444,7.155
			c-5.246,6.988-9.917,14.82-12.862,22.988c-2.172,6.026-5.507,9.235-10.837,11.415c-6.22,2.544-10.63,6.536-11.264,13.708
			c-0.884,10.015-3.087,20.11-2.375,30.001c0.538,7.453,0.207,13.071-5.134,18.757c-2.713,2.89-4.122,7.844-4.423,11.987
			c-0.648,8.928-0.441,17.946-0.03,26.903c0.105,2.304,2.038,4.684,3.542,6.728c2.457,3.339,5.358,6.347,7.877,9.644
			c4.384,5.736,7.441,13.018,16.652,13.915c0.209-2.385,0.146-4.299,0.58-6.089c1.158-4.79,1.012-11.576,4.119-13.88
			c7.632-5.659,11.107-12.806,12.545-20.044c4.311-0.909,8.012-1.689,13.533-2.853c1.844,1.541,5.083,4.797,8.847,7.246
			c3.934,2.559,8.279,5.778,12.618,6.062c4.427,0.289,5.406,2.256,7.207,5.252c17.775,29.59,35.523,59.254,67.443,76.99
			c-2.2,0.852-3.932,1.522-6.024,2.331c4.557,8.837,13.272,9.908,22.888,13.555c-3.951,1.804-6.557,2.995-9.163,4.185
			c0.508,0.945,1.017,1.891,1.524,2.836c3.132,0.808,6.243,2.207,9.399,2.318c13.415,0.474,24.549-5.466,34.8-13.35
			c18.286-14.062,36.405-28.341,54.77-42.301c4.196-3.19,9.106-5.441,13.688-8.124c0.598,0.438,1.195,0.876,1.793,1.313
			c-7.354,37.18-14.708,74.357-22.285,112.658c3.878-1.348,6.889-2.395,8.13-2.825c3.968,30.295,7.926,60.704,11.95,91.106
			c1.162,8.777-0.595,10.362-8.629,8.027c-17.287-5.021-20.063-5.32-26.53,12.15c-12.079,1.139-13.166,0.426-16.421-10.641
			c-0.611-2.077-1.208-4.176-2.047-6.166c-1.702-4.036-3.616-7.14-9.19-5.034c-6.488,2.452-12.479,1.146-17.115-4.571
			c-1.01-1.247-2.541-2.071-5.311-4.258c-0.565,4.577-1.942,8.125-1.21,11.167c2.569,10.69,5.521,21.317,8.947,31.765
			c8.666,26.426,27.404,40.958,54.548,45.325c1.898,0.305,3.642,1.572,5.401,2.366c-2.801,5.895-5.208,10.961-8.488,17.86
			c6.094-1.226,10.139-2.038,13.028-2.619c2.869,5.01,5.431,9.484,7.994,13.961c1.618-0.94,3.236-1.882,5.018-2.917
			c1.707,2.771,3.552,5.767,6.565,10.657c-10.907-1.736-20.222-3.221-29.983-4.774c0.405,2.367,0.706,4.128,0.697,4.073
			c-3.934,3.408-9.029,5.664-9.437,8.578c-1.293,9.219-7.453,15.031-12.259,21.945c-1.84,2.647-2.849,6.149-3.329,9.397
			c-0.652,4.415-0.03,7.706,6.341,5.764c5.115-1.558,10.731-1.473,15.886-2.087c-0.221,4.089-0.386,7.126-0.609,11.267
			c9.982-1.995,19.142-3.825,28.096-5.615c0.355,4.759,0.622,8.352,0.956,12.83c3.364-0.748,5.933-1.068,8.324-1.9
			c4.812-1.671,8.843-1.6,14.019,0.56c5.264,2.198,12.377,2.362,18.007,0.872c25.913-6.864,51.621-14.514,77.326-22.139
			c5.452-1.616,8.443-5.108,5.873-11.552c-2.656-6.657-4.945-13.498-6.84-20.411c-1.746-6.365-4.276-13.075-3.676-19.37
			c0.661-6.924,4.824-13.447,6.843-20.327c1.337-4.559,4.128-4.848,8.102-5.165c11.483-0.916,23.129-1.489,34.303-4.01
			c7.547-1.701,13.099-2.646,17.272,5.228c4.423,8.345,11.402,15.913,13.567,24.729c2.769,11.273,2.106,23.447,2.392,35.245
			c0.151,6.236,1.909,10.872,8.074,13.026c25.077,8.766,50.087,17.733,75.319,26.025c4.636,1.523,10.915,1.837,15.154-0.098
			c6.556-2.992,12.025-3.145,18.07,0.162c0.881,0.481,2.168,0.223,4.114,0.37c-0.404-4.287-0.752-7.971-1.001-10.612
			c9.281-9.777,19.399-2.562,30.027-1.733c-0.485-4.571-0.875-8.249-1.375-12.987c3.956,0.623,7.701,0.969,11.316,1.854
			c3.607,0.881,7.084,2.302,10.712,3.518c1.865-10.384-1.089-19.719-7.418-27.443c-2.416-2.948-4.328-6.676-5.319-10.358
			c-2.804-10.414-6.841-13.753-17.88-13.872c-2.488-0.026-5.004-0.476-7.442-1.016c-1.175-0.258-2.255-1.793-3.286-1.702
			c-4.46,0.389-8.887,1.165-14.001,1.896c1.007-4.537,1.772-7.988,2.493-11.236c1.864,0,4.649,0.142,4.668-0.021
			c0.83-7.52,1.42-15.064,2.062-22.936c2.228-0.293,5.663-0.745,10.498-1.381c-3.207-3.585-5.376-6.088-7.629-8.514
			c-20.238-21.799-35.738-46.569-46.445-74.31c-0.604-1.565-0.078-3.566-0.078-7.392c2.519,3.9,3.795,5.876,5.366,8.312
			c7.657-8.188,6.006-18.079,6.484-27.748c1.767,0.456,3.117,0.803,5.261,1.355c-0.5-5.745,0.108-11.131-1.56-15.686
			c-5.835-15.933-12.389-31.605-18.795-47.325c-9.338-22.912-18.828-45.761-28.097-68.699c-0.678-1.678-0.555-4.016,0.012-5.786
			c1.09-3.405,3.22-6.506,4.115-9.941c3.261-12.5,6.189-25.084,9.337-38.024c27.013,8.951,51.478,22.161,74.886,39.636
			c-3.012,1.187-5.029,1.777-6.838,2.755c-1.596,0.863-2.958,2.157-4.423,3.259c1.343,1.47,2.413,3.635,4.076,4.285
			c6.179,2.413,12.551,4.328,19.594,6.676c-0.716,6.354,4.775,5.524,8.376,4.5c10.011-2.85,19.769-6.579,30.031-10.099
			c2.282-0.33,5.865,0.213,7.787-1.323c5.573-4.458,11.041-9.288,15.543-14.797c16.595-20.303,25.72-44.29,32.299-69.267
			c6.469-24.566,12.413-49.277,18.139-74.027c1.194-5.159,4.131-7.199,8.473-7.994c6.714-1.228,10.46-5.408,12.912-11.385
			c3.094-7.547,6.164-15.118,9.652-22.485c4.228-8.928,10.737-15.851,18.037-19.725c7.766,3.121,14.324,5.758,21.972,8.831
			c1.463,3.578,3.493,8.546,5.551,13.581C833.244,234.471,842.234,207.862,837.82,197.087z M753.201,176.451
			c0.715-3.926,0.134-8.087,0.134-12.249c14.494-3.018,19.614-0.584,23.867,13.94c2.323,7.932,2.869,16.451,3.556,24.76
			c0.227,2.724-1.629,5.618-2.729,9.05c-11.267-13.027-20.593-11.622-31.461,4.24c-2.582-2.443-5.073-4.803-8.541-8.086
			c9.507-0.869,8.634-7.98,10.323-13.192C750.311,188.863,752.062,182.695,753.201,176.451z M771.603,215.124
			c-0.813,9.688-7.727,15.312-14.753,20.763c-1.526-6.593-3.345-12.461-4.068-18.459c-0.33-2.727,0.754-7.494,2.505-8.232
			c4.323-1.819,9.405-2.254,14.169-2.192C770.257,207.013,771.834,212.362,771.603,215.124z M727.262,187.905
			c-0.883-1.071-1.122-4.138-0.335-4.877c3.729-3.51,7.498-7.499,12.055-9.465c5.043-2.181,7.875,2.209,7.757,6.609
			c-0.209,7.892-1.486,15.758-2.318,23.633c-0.959,0.048-1.921,0.097-2.881,0.145C736.744,198.632,731.821,193.419,727.262,187.905z
			 M450.58,255.715c-0.155-0.821-0.311-1.641-0.466-2.461c5.058-2.381,9.14-7.621,16.107-4.401c1.729,0.083,4.363-0.53,5.043,0.355
			c4.997,6.513,9.668,13.281,14.262,20.091c0.715,1.059,0.677,2.735,0.7,4.13c0.097,5.735-14.444,19.414-20.023,19.491
			c1.575-3.387,4.426-6.934,4.575-10.59c0.14-3.386-2.609-6.892-4.352-10.959c4.569,0,9.236,0,13.903,0
			c0.003-0.445,0.007-0.888,0.01-1.332c-4.537,0-9.075,0-12.257,0c-1.991-6.019-3.655-11.043-5.318-16.069
			C458.704,254.552,454.641,255.133,450.58,255.715z M429.115,340.044c-5.578,3.317-4.177,5.805,0.188,7.873
			c10.229,4.845,32.115-0.019,38.734-9.035c1.229-1.673,1.74-5.622,0.659-6.924c-3.66-4.41-7.771-8.75-12.552-11.796
			c-2.398-1.528-6.948-1.095-9.946,0.016c-6.954,2.575-10.285,1.689-13.034-4.924c-3.271-7.865,3.774-22.351,12.302-22.821
			c4.189-0.231,8.636,4.164,12.226,6.072c-1.358-1.7-3.704-4.634-6.114-7.649c9.395-2.419,9.174-1.956,12.946,5.868
			c9.872,20.476,25.333,35.302,47.368,41.803c5.424,1.601,7.452,4.547,7.626,8.648c1.106,26.074-3.92,51.196-15.36,74.516
			c-5.46,11.129-18.308,14.08-29.238,16.331c-18.444,3.797-37.321,5.808-56.114,7.432c-7.695,0.666-15.819-0.912-23.439-2.753
			c-10.265-2.479-15.203-11.534-19.742-19.856c-5.892-10.8-10.504-22.297-15.501-33.132c-0.289,1.57-0.751,4.091-1.213,6.613
			c-0.784-0.042-1.567-0.085-2.35-0.129c0.548-9.574,0.379-19.257,1.818-28.694c2.091-13.712,5.09-27.304,8.254-40.818
			c0.949-4.057,3.739-7.683,6.611-9.783c4.331-1.103,8.675-2.158,12.988-3.325c3.77-1.021,6.964-5.463,11.482-1.871
			c5.126-7.09,12.988-6.264,20.305-7.019c4.493-1.715,9.208-3.25,7.087-10.811c5.156,4.64,6.785,8.859,6.146,14.791
			c-0.68,6.293,0.448,12.692,7.409,15.649C435.219,329.984,432.358,334.697,429.115,340.044 M429.223,340.98
			c0.083,0.031,0.781-1.118,0.937-1.286c5.158-5.544,10.956-15.421,19.689-19.201c10.174,2.521,12.002,6.848,16.219,10.399
			c0,6.324-2.224,7.718-10.092,11.813c-3.193,4.503-6.569,4.817-10.058,2.1c-1.877,6.722-7.115,1.798-10.023,3.868
			c-0.41-0.513-0.822-1.025-1.233-1.537c0.999-1.828-0.208-1.89-0.541-2.435c-1.299,0.267-1.31-0.212-5.211,2.417
			c0,0-3.455-2.307-0.277-5.552 M447.271,267.602c-0.532-1.299-0.937-2.289-1.362-3.325c11.018-0.065,23.631,12.457,22.4,23.246
			c-6.257,0-12.931-1.126-18.986,0.326c-5.633,1.351-10.647,5.291-17.128,8.82c0.068,0.103,0.143,0.21,0.207,0.312
			c0.017,0.025,0.04,0.046,0.063,0.065c0.413,0.126,0.159,0.133,0,0c-0.138-0.042-0.34-0.096-0.659-0.165
			c0.131-0.07,0.258-0.142,0.388-0.212c-2.904-4.41-8.724-10.184-7.547-12.817C428.664,274.861,435.53,267.353,447.271,267.602z
			 M378.744,286.059c6.156-9.121,17.048-14.356,25.79-13.521c8.284,0.791,16.476-4.39,24.902,0.162
			c-2.292,2.798-4.364,5.328-6.444,7.868c-9.864-5.605-17.537,2.2-26.234,3.19c-1.61,0.111-3.219,0.224-4.829,0.334
			c0.257,1.522,0.514,3.044,0.737,4.366c8.261-2.73,16.77-5.544,26.153-8.644c1.461,7.015,2.748,13.188,3.836,18.411
			c-14.599,5.051-28.043,9.871-41.639,14.212c-1.896,0.605-6.183-0.681-6.527-1.894c-0.946-3.341-6.786-6.651-0.413-10.847
			c5.293-3.484,9.776-8.202,14.618-12.375c-3.641,2.475-7.28,4.951-10.921,7.426c-0.696-0.41-1.394-0.82-2.09-1.229
			C376.681,291.015,377.272,288.239,378.744,286.059z M350.029,283.034c-4.121-3.069,0.089-7.124,1.23-10.555
			c2.773-8.337,16.126-9.708,28.756-5.115c-2.811,1.477-5.505,2.397-7.553,4.096c-2.482,2.058-4.328,4.865-6.624,7.174
			c-1.449,1.457-3.221,2.594-4.024,3.228c1.136,2.126,2.599,4.867,4.783,8.956c1.735,0.863,5.125,2.547,9.905,4.923
			c-12.991,4.007-0.558,15.946-9.041,22.711c-6.985-5.885-18.969-5.066-21.759-15.537
			C343.958,296.367,345.734,289.141,350.029,283.034z M206.008,212.99c3.665,8.426,2.402,15.613-4.192,21.74
			c-1.353-1.669-2.609-3.481-4.135-5.027c-1.495-1.514-3.263-2.758-5.154-4.32C197.01,221.262,201.469,217.163,206.008,212.99z
			 M24.573,280.441c0.318-9.284,5.865-14.241,15.015-16.95c2.693,5.831,5.416,11.759,8.17,17.671
			c1.717,3.686,3.442,7.369,5.237,11.017c2.478,5.039,5.614,6.364,9.555,1.308c6.563,11.139,6.395,19.297,0.381,24.987
			c-13.795-5.851-19.021-4.499-31.644,9.99c-2.839-7.92-6.354-14.103-7.067-20.592C23.23,298.848,24.259,289.592,24.573,280.441z
			 M50.061,268.123c0.167-1.679,3.52-4.648,4.681-4.337c4.208,1.132,8.913,2.606,11.829,5.541c1.786,1.8,1.789,6.992,0.577,9.789
			c-2.139,4.932-5.819,9.194-9.213,14.275C49.169,286.474,49.152,277.304,50.061,268.123z M36.867,372.511
			c-0.805,2.716-1.298,5.55-1.669,8.364c-0.336,2.555-0.31,5.157-0.513,9.079c-9.141-5.683-13.188-13.348-15.207-22.052
			c-1.61-6.939,3.341-7.099,8.35-6.972C37.463,361.175,39.469,363.716,36.867,372.511z M50.887,352.521
			c-1.865,4.802-4.395,9.347-7.317,15.296c-7.293-12.204-24.622-13.073-27.752-2.355c-8.455-6.839-5.57-31.693,5.179-43.188
			c9.428,8.381,18.927,16.697,28.216,25.24C50.387,348.594,51.39,351.224,50.887,352.521z M58.955,349.324
			c-9.492-3.521-15.923-10.825-20.259-19.945c-0.897-1.887,0.11-5.67,1.583-7.497c3.992-4.95,10.13-5.299,15.213-3.075
			c2.152,0.941,3.057,6.254,3.315,9.673C59.31,335.137,58.955,341.858,58.955,349.324z M277.3,622.765
			c-8.201,2.959-14.713,5.31-21.519,7.766C255.325,620.743,260.188,614.507,277.3,622.765z M229.538,624.245
			c-4.465-3.842-8.53-7.341-13.526-11.639C227.649,609.637,231.262,612.845,229.538,624.245z M222.619,659.702
			c-10.658-15.242-18.803-31.952-19.046-52.89c7.763,6.791,14.226,12.454,20.696,18.107c11.78,10.295,25.083,12.297,39.686,7.309
			c7.882-2.692,15.783-5.332,24.552-8.293c-2.355,20.751-9.657,39.797-17.029,58.947
			C251.612,681.688,234.061,676.066,222.619,659.702z M257.753,766.147c-4.922,0.688-9.81,1.621-15.803,2.63
			c-0.778-7.049,2.578-11.854,6.63-16.157c2.099-2.23,4.853-3.905,7.475-5.573c7.52-4.78,12.082-2.289,12.461,6.692
			C268.763,759.547,263.648,765.321,257.753,766.147z M286.897,771.341c-6.983,2.774-14.741,3.596-22.186,5.204
			c-2.109-10.365,9.401-26.91,19.044-26.509c6.355,0.264,8.428,6.649,8.875,11.451C292.929,764.697,289.806,770.186,286.897,771.341
			z M303.287,780.681c-3.896,1.121-7.747,2.396-12.121,3.762c-1.127-12,4.369-20.614,12.881-27.554
			c4.159-3.391,9.297-1.71,10.79,3.719c1.469,5.342,1.536,11.07,2.19,16.396C311.523,778.467,307.384,779.5,303.287,780.681z
			 M601.088,785.864c-6.246-1.586-12.765-2.532-18.617-5.037c-2.747-1.176-5.477-5.145-5.977-8.213
			c-0.859-5.281-1.404-11.417,4.825-14.634c1.032-0.533,2.772-0.147,4.028,0.277C591.7,760.406,603.445,776.545,601.088,785.864z
			 M629.858,773.141c-6.984-0.964-14.004-1.748-20.924-3.062c-1.495-0.285-3.653-2.409-3.743-3.799
			c-0.339-5.183-0.538-10.521,0.363-15.594c0.736-4.138,3.826-5.39,8.183-3.354C622.402,751.376,630.514,763.99,629.858,773.141z
			 M652.327,764.942c-7.652-1.71-14.861-2.908-21.787-5.032c-3.918-1.2-3.987-12.953-0.568-18.608
			c3.487-5.769,7.188-1.727,10.1,0.23C647.876,746.778,651.587,754.525,652.327,764.942z M833.13,213.91
			c-1.459,7.497-3.743,14.833-5.717,22.231c-0.89-0.176-1.781-0.351-2.671-0.527c-3.046-5.865-6.392-11.606-8.932-17.685
			c-0.641-1.537,0.684-5.243,2.152-6.051c3.813-2.102,8.161-3.385,12.444-4.299C830.907,207.472,833.511,211.95,833.13,213.91z
			 M819.642,207.474c-3.907,2.269-6.374,7.017-10.105,11.42c-8.331-0.648-13.007-6.889-15.999-15.658
			c0.233,3.362,0.467,6.724,0.729,10.519c-14.053,6.16-20.43,19.529-27.204,32.565c-0.223,0.431-0.455,0.867-0.594,1.328
			c-4.943,16.371-16.055,23.113-32.834,21.147c-2.077-0.243-4.206-0.034-6.312-0.034c-0.09,0.588-0.181,1.175-0.271,1.764
			c4.909,0.993,9.819,1.987,16.737,3.388c-12.676,40.052-24.867,80.381-38.392,120.259c-4.34,12.793-16.588,31.698-25.575,35.527
			c0.557-3.926,1.064-7.5,1.57-11.072c-12.273,9.989-21.585,23.453-39.552,24.432c2.63-1.956,5.258-3.912,9.22-6.859
			c-11.915,0.3-22.033,3.338-33.031-2.41c7.35-1.608,13.025-2.849,18.701-4.091c0.125-0.63,0.252-1.258,0.377-1.888
			c-21.634-12.084-43.161-24.367-64.975-36.117c-5.646-3.042-12.116-4.667-18.343-6.478c-5.509-1.601-8.79-3.802-5.56-10.087
			c0.614-1.194,0.324-2.854-1.131-4.764c-2.751,9.818-5.37,19.677-8.287,29.447c-3.559,11.92-7.389,23.76-11.034,35.654
			c-0.447,1.46-1.104,3.289-0.616,4.538c9.766,24.993,19.51,49.998,29.65,74.84c4.9,12.006,10.686,23.649,15.875,35.542
			c0.911,2.089,3.976,5.134-1.374,6.573c-0.691,0.184-0.354,4.47-0.366,6.858c-0.037,7.61-0.014,15.221-0.014,24.362
			c-7.247-5.459-2.716-12.011-6.073-19.319c-3.408,29.354-17.955,50.532-38.703,69.387c11.516-3.23,12.001-3.715,34.555-33.52
			c11.984,27.24,26.759,52.378,50.277,74.402c-4.333-0.99-6.68-1.213-8.755-2.082c-2.341-0.981-4.438-2.545-5.625-3.251
			c2.901,7.914,6.007,16.378,9.11,24.843c-0.926,0.383-1.853,0.765-2.778,1.148c-1.89-3.673-3.779-7.345-4.989-9.692
			c-1.15,9.214-2.443,19.561-3.836,30.71c8.191,0.491,17.647,1.326,27.117,1.562c11.438,0.287,12.39,0.775,15.839,11.088
			c-4.601,3.468-8.918,6.723-13.255,9.991c-0.422-1.618-0.847-4.541-1.939-7.188c-2.816-6.823-7.683-9.149-14.884-7.911
			c-3.229,0.557-6.563,0.501-9.85,0.723c-0.076,0.632-0.153,1.263-0.23,1.894c2.766,0.395,5.525,1.091,8.296,1.131
			c12.115,0.182,13.407,1.329,14.925,14.396c-0.698-0.099-1.404-0.025-1.928-0.299c-9.952-5.215-14.646-1.117-16.014,9.644
			c-0.712,5.605,1.38,11.57,2.306,18.087c-5.333-1.554-5.51-5.615-5.97-10.535c-0.595-6.348-2.682-12.556-4.133-18.823
			c-0.398-1.722-0.82-3.438-1.456-6.09c-5.901-0.552-12.981-1.214-20.062-1.876c-0.084,0.636-0.169,1.273-0.254,1.91
			c4.496,0.643,8.992,1.285,13.975,1.995c-0.59,0.83-1.254,1.765-1.921,2.7c9.086,4.094,10.725,7.152,8.923,17.231
			c-1.143-0.472-2.214-0.878-3.256-1.352c-3.674-1.672-7.76-6.824-11.258-2.357c-3.212,4.102-5.13,10.136-5.307,15.396
			c-0.137,4.067,3.3,8.255,5.691,13.607c-6.562-1.14-13.705-1.519-20.265-3.68c-20.087-6.62-39.926-13.989-59.911-20.924
			c-7.028-2.438-10.216-6.473-10.046-14.487c0.229-10.777,0.666-22.194-2.483-32.238c-3.924-12.513-11.413-23.91-17.45-35.963
			c1.536-1.114,4.566-3.312,7.595-5.51c-26.708,7.58-53.676,10.384-82.144,10.801c1.456-2.009,2.273-3.137,3.288-4.538
			c-7.214-2.095-14.252-4.139-21.292-6.183c-0.235,0.359-0.472,0.721-0.708,1.082c2.053,1.551,4.106,3.103,4.785,3.616
			c3.197,12.445,14.636,7.413,20.825,12.29c-0.807,2.947-1.298,6.233-2.582,9.176c-6.39,14.635-0.355,28.197,3.352,41.967
			c1.181,4.389,2.562,8.721,3.785,13.099c1.095,3.92-0.095,6.352-4.304,7.539c-25.875,7.295-51.678,14.854-77.598,21.988
			c-3.604,0.992-7.716,0.136-11.111,0.136c2.618-4.46,6.115-7.899,6.437-11.614c0.385-4.439-1.597-9.24-3.185-13.658
			c-2.246-6.251-6.738-7.673-13.098-4.171c0.604-7.661,7.543-7.471,11.813-10.399c-0.978-0.861-1.669-1.473-3.095-2.731
			c5.876,0,10.843,0,16.599,0c-6.324-3.667-20.107-4.228-22.52-0.54c-3.884,5.938-6.752,12.543-10.366,19.472
			c-3.649-6.75-7.803-13.789-17.553-11.607c0.302-9.403,0.302-9.403,19.623-12.156c-0.038-0.713-0.075-1.428-0.113-2.142
			c-6.09,0.63-13.425-0.592-17.905,2.429c-4.155,2.8-5.26,10.128-7.841,15.754c-1.497-2.407-2.745-5.895-5.2-7.927
			c-2.25-1.863-5.803-2.153-10.107-3.574c0.986-6.528,7.07-8.12,13.797-9.581c-1.231-1.528-2.201-2.734-2.654-3.297
			c9.687,0,19.753,0,30.044,0c-4.549-8.702-8.917-17.06-13.954-26.697c-0.759,4.734-1.341,8.359-2.109,13.151
			c-5.908-6.604-2.509-13.514-2.716-20.237c-2.827,2.295-5.467,4.44-8.107,6.584c9.623-20.745,16.819-41.823,20.061-63.906
			c1.469-10.01,0.186-20.562-0.837-30.769c-1.601-15.979-4.311-31.843-6.051-47.812c-1.74-15.967-3.083-31.987-4.126-48.017
			c-0.322-4.942,0.912-9.986,0.367-15.268c-1.668,4.851-3.336,9.7-5.005,14.549c-0.73-0.184-1.462-0.368-2.192-0.554
			c0.953-4.213,1.999-8.407,2.843-12.643c4.494-22.528,9.062-45.041,13.327-67.613c1.419-7.511,1.582-15.274,3.208-22.727
			c0.656-3.006,3.698-5.493,5.934-8.605c-3.651,1.299-7.767,2.406-11.574,4.176c-24.604,11.438-46.554,26.792-66.638,44.996
			c-8.888,8.054-18.082,15.933-30.289,18.737c-2.06,0.475-4.197,0.611-6.299,0.905c-0.323-0.71-0.646-1.418-0.969-2.126
			c5.49-2.787,10.98-5.575,16.966-8.612c-10.342,0.49-20.426,3.455-30.802-4.342c5.026-1.133,8.729-1.968,13.003-2.93
			c-32.204-14.143-53.211-39.188-71.477-67.119c-3.146-4.81-5.786-9.972-9.181-14.589c-3.138-4.267-1.227-5.978,2.326-8.494
			c4.013-2.841,7.266-6.758,9.776-11.061c-4.86,2.953-9.505,6.365-14.633,8.741c-6.518,3.019-13.032,2.921-18.843-2.37
			c-2.639-2.404-5.745-4.302-8.688-6.36c-10.92-7.642-11.805-15.392-4.107-26.392c5.314-7.592,4.932-16.177,1.17-24.529
			c-1.07-2.377-2.502-4.59-4.061-7.41c10.397-2.433,20.698-4.209,24.836-15.671c2.314,0.92,4.35,1.727,6.386,2.536
			c-8.156-4.622-3.168-13.398-6.062-21.08c-4.715,22.593-8.33,27.214-20.475,27.834c0.815-3.136,2.839-6.616,2.161-9.449
			c-0.768-3.208-3.526-6.341-6.184-8.611c-6.144-5.251-11.176-4.614-18.36,1.487c-1.842-8.707,1.522-19.975,9.293-31.006
			c0.554-0.788,1.369-1.388,1.937-2.167c10.517-14.438,18.188-15.915,33.45-6.593c12.1,7.39,24.266,14.671,36.425,21.965
			c1.656,0.993,3.379,1.924,5.169,2.642c16.399,6.582,14.864,5.53,24.356-6.93c4.545-5.965,9.913-12.138,16.315-15.658
			c10.556-5.806,25.882,2.906,27.803,14.812c0.341,2.109-0.987,5.925-2.614,6.694c-16.621,7.862-22.665,23.493-29.2,38.781
			c-1.757,4.111-3.043,8.422-4.887,13.598c2.307-1.764,3.8-2.907,5.459-4.175c17.667,11.301,34.912,23.64,57.982,29.076
			c-3.803-2.43-5.9-3.769-8.26-5.277c17.601-11.088,34.621-21.811,53.661-33.805c-4.852,0.457-7.728,0.727-10.604,0.997
			c-0.191-0.579-0.382-1.159-0.573-1.739c7.083-2.784,14.164-5.568,22.248-8.747c-3.893-1.384-7.475-2.66-11.058-3.935
			c0.066-0.62,0.132-1.241,0.197-1.862c6.289,0.675,13.037,0.119,18.778,2.26c15.915,5.933,31.454,12.89,46.997,19.77
			c1.476,0.654,3.131,4.016,2.654,5.429c-2.044,6.048,0.003,9.681,5.435,12.189c3.713,1.716,7.173,4.121,11.022,5.36
			c4.617,1.487,5.311,4.531,4.53,8.426c-2.68,13.369-6.205,26.617-8.024,40.097c-1.386,10.271-0.937,20.831-0.654,31.245
			c0.053,1.941,3.186,3.798,5.8,6.695c6.184,10.444,13.02,22.48,20.354,34.203c5.097,8.146,14.006,10.108,22.572,11.154
			c30.831,3.765,60.771,0.446,89.537-12.062c15.668-6.813,20.728-20.678,24.216-35.321c3.042-12.762,4.629-25.868,7.062-38.784
			c0.299-1.589,1.967-2.881,2.79-4.424c0.614-1.151,1.571-2.771,1.188-3.68c-1.111-2.63-2.312-4.84,1.889-5.473
			c-0.63-2.2-1.245-4.403-1.892-6.598c-0.537-1.821-1.109-3.633-2.124-6.946c-22.818-0.469-40.038-13.751-54.159-32.006
			c9.511-5.565,19.161-9.71,26.888-16.161c7.6-6.341,13.247-15.022,19.817-22.755c-0.29,1.815-0.612,3.835-1.043,6.529
			c10.625-5.086,21.246-7.397,34.134-3.156c-5.974,2.021-10.386,3.514-13.728,4.644c23.647,10.808,47.31,21.621,71.371,32.616
			c-0.564,2.432-1.135,4.887-1.704,7.342c16.511-21.216,36.07-40.059,46.792-65.858c2.763,2.028,4.74,3.479,7.877,5.781
			c-11.48-17.169-25.986-25.763-45.39-25.565c-8.632,0.088-10.177-1.858-8.005-10.465c1.272-5.041,2.84-10.188,5.33-14.705
			c5.683-10.312,10.913-11.737,22.199-8.164c8.854,2.802,17.829,5.54,26.962,6.959c2.994,0.466,8.17-2.447,9.726-5.263
			c6.218-11.269,11.626-23.01,16.91-34.766c5.485-12.202,13.412-22.225,24.691-29.422c2.036-1.299,4.721-1.578,7.105-2.328
			c0.188,0.392,0.377,0.786,0.564,1.178c-1.099,0.983-2.197,1.966-3.893,3.483c19.67,5.685,25.603,22.16,31.88,38.942
			c-8.546-4.998-15.794-2.263-21.645,3.449c-4.049,3.953-7.321,9.323-2.675,15.453c-17.312,4.177-18.043-11.287-25.123-19.834
			c1.799,5.226,3.221,10.622,5.483,15.638c3.842,8.508,11.667,9.692,19.613,8.666c6.21-0.8,8.176,1.592,8.668,7.183
			c0.665,7.547,4.043,13.08,11.956,15.286c7.578,2.114,5.718,9.706,7.901,14.92c0.496,1.184,0.073,2.753,0.073,4.298
			c15.724-5.096,32.69-30.089,31.508-45.854c-0.035-0.483,0.014-0.974-0.03-1.454c-1.075-11.517,1.294-14.723,13.174-12.859
			c14.215,2.228,27.415,7.56,34.553,21.685c0.81,1.602,0.953,3.541,1.183,4.445C829.191,205.122,823.723,205.104,819.642,207.474z"
			/>
	</g>
	<path fill-rule="evenodd" clip-rule="evenodd" d="M486.165,460.273c-8.385,0-16.77,0-25.154,0c-0.06,0.343-0.119,0.686-0.18,1.027
		c0.972,0.289,1.941,0.579,3.257,0.971c-21.612,3.87-42.948,7.691-64.283,11.512c-0.174-0.202-0.349-0.406-0.523-0.609
		c8.067-2.792,16.043-5.893,24.232-8.265c5.466-1.585,12.833-0.307,16.522-3.538c6.993-6.125,14.211-2.71,21.158-3.146
		c8.273-0.52,16.657,0.703,24.992,1.171C486.179,459.688,486.172,459.98,486.165,460.273z"/>
	<path fill-rule="evenodd" clip-rule="evenodd" d="M156.05,317.026c-6.367,4.944-12.086,11.402-19.255,14.477
		c-10.56,4.531-14.52,2.394-19.795-5.203c-4.945-7.12-10.924-13.52-15.974-19.661c8.092,1.782,13.638,8.664,19.167,15.44
		c5.104,6.255,10.958,7.937,17.838,3.99c5.722-3.282,11.054-7.244,16.559-10.906C155.077,315.785,155.563,316.405,156.05,317.026z"
		/>
	<path fill-rule="evenodd" clip-rule="evenodd" d="M679.254,259.526c2.478,0.664,4.951,1.345,7.433,1.99
		c14.892,3.872,19.567,1.191,24.37-13.302c1.609-4.861,4.063-9.445,6.132-14.155c0.742,0.293,1.483,0.586,2.226,0.88
		c-2.733,8.89-4.659,18.143-8.431,26.57c-3.746,8.373-12.346,4.755-18.791,4.464c-4.689-0.212-9.253-3.22-13.871-4.981
		C678.632,260.503,678.942,260.014,679.254,259.526z"/>
	<path fill-rule="evenodd" clip-rule="evenodd" d="M377.534,341.798c4.859,0.41,9.226,0.778,13.593,1.145
		c0.032,0.644,0.064,1.287,0.096,1.929c-1.331,0.348-2.662,0.696-4.486,1.172c6.252,13.928,15.343,24.332,30.344,27.711
		c4.685,1.055,10.036,0.166,14.901-0.771c21.318-4.105,41.872-10.271,60.073-24.325c-3.353,7.166-2.562,11.726,5.167,15.618
		c3.876,1.952,5.381,8.933,7.458,13.851c0.38,0.901-1.308,3.558-2.614,4.158c-24.386,11.183-47.459,25.536-74.27,30.917
		c-8.938,1.792-16.168-2.29-22.329-7.453c-17.276-14.474-26.285-33.273-26.935-55.943
		C378.473,347.735,378.03,345.672,377.534,341.798z M488.259,355.251c-9.509,4.755-17.561,9.594-26.204,12.875
		c-8.639,3.279-17.813,5.23-26.851,7.351c-15.693,3.683-29.643,1.176-39.907-12.549c-4.483-5.994-8.759-12.146-13.129-18.227
		c-0.589,0.057-1.177,0.114-1.765,0.169c0.606,5.52,0.081,11.52,2.157,16.417c1.86,4.385,23.418,23.136,26.88,26.842
		c-0.75,0.513-1.5,1.026-2.251,1.539c-1.95-3.258-20.732-22.096-22.682-25.353c-0.617,0.316-1.233,0.631-1.85,0.947
		c2.534,6.013,4.278,12.531,7.737,17.952c15.935,24.963,28.408,32.767,53.856,21.995c17.041-7.214,33.932-14.817,51.194-21.452
		c5.754-2.21,7.241-5.201,5.224-10.087c-1.649-3.995-4.438-7.519-6.722-11.251c-0.621,0.196-1.242,0.394-1.862,0.591
		c-0.968,3.397-28.582,24.665-50.951,25.163C464.913,381.797,489.915,369.983,488.259,355.251z"/>
	<path fill-rule="evenodd" clip-rule="evenodd" d="M482.84,404.854c-7.031,4.062-14.062,8.126-21.093,12.189
		c-0.319-0.549-0.639-1.099-0.957-1.649c7.004-4.111,14.008-8.222,21.012-12.333C482.147,403.658,482.493,404.257,482.84,404.854z"
		/>
</g>
<g>
	<path fill-rule="evenodd" clip-rule="evenodd" d="M410.717,323.283c-3.268-0.378-5.318-3.405-5.582-5.269
		c-0.409-2.897,2.011-6.995,5.356-6.995c3.687,0.317,5.368,4.064,5.82,6.509C416.688,319.564,414.406,323.283,410.717,323.283z"/>
	<path fill-rule="evenodd" clip-rule="evenodd" d="M437.846,306.11c0.907-5.523,5.198-6.758,7.146-6.494
		c2.546,0.344,5.166,4.116,4.857,5.747c-0.526,2.786-1.876,4.124-4.669,5.293C443.872,311.203,438.375,311.098,437.846,306.11z"/>
</g>
</svg>
